<?xml version="1.0" standalone="no"?>
<!DOCTYPE svg PUBLIC "-//W3C//DTD SVG 20010904//EN"
 "http://www.w3.org/TR/2001/REC-SVG-20010904/DTD/svg10.dtd">
<svg version="1.0" xmlns="http://www.w3.org/2000/svg"
 width="424.000000pt" height="432.000000pt" viewBox="0 0 424.000000 432.000000"
 preserveAspectRatio="xMidYMid meet">

<g transform="translate(0.000000,432.000000) scale(0.100000,-0.100000)"
fill="#000000" stroke="none">
<path d="M1928 4189 c-729 -70 -1372 -571 -1650 -1284 -45 -115 -51 -135 -41
-135 5 0 21 34 37 75 16 42 31 74 33 71 2 -2 -3 -20 -11 -40 -59 -142 -114
-415 -122 -606 -5 -144 9 -137 20 9 9 125 40 305 71 413 28 98 86 261 90 256
2 -2 -14 -56 -36 -120 -64 -191 -111 -478 -108 -648 1 -30 7 13 14 95 26 305
85 524 207 770 106 212 209 351 383 516 256 242 524 391 854 473 193 48 299
60 488 52 396 -14 761 -142 1064 -373 182 -139 309 -275 457 -494 66 -98 172
-326 206 -447 66 -228 80 -323 80 -562 1 -211 -4 -263 -40 -440 -21 -102 -89
-309 -129 -398 -64 -137 -201 -348 -301 -462 -72 -83 -83 -99 -39 -60 22 19
42 37 45 40 3 3 29 28 59 55 51 46 53 48 35 17 -63 -110 -260 -297 -442 -420
-56 -38 -98 -73 -94 -77 4 -5 -1 -5 -11 -2 -10 4 -16 3 -12 -3 3 -5 -27 -27
-67 -49 -97 -54 -79 -52 31 3 305 154 579 404 765 701 31 48 53 92 50 96 -3 5
0 9 7 9 7 0 10 3 6 6 -3 4 11 41 32 83 95 189 168 431 197 655 12 91 14 173
10 355 -3 130 -8 250 -12 266 -4 17 -4 27 0 24 18 -17 39 -226 39 -389 0 -347
-62 -644 -193 -923 -23 -48 -46 -87 -52 -87 -6 0 -9 -3 -5 -6 8 -8 -20 -64
-32 -64 -4 0 -8 -6 -8 -13 0 -23 -123 -195 -208 -291 -291 -327 -663 -542
-1090 -630 -66 -14 -108 -25 -94 -25 15 -1 71 8 124 19 105 22 122 24 88 10
-40 -16 -276 -59 -365 -66 -91 -7 -121 -24 -44 -24 145 0 420 56 599 121 557
205 994 638 1200 1189 39 106 81 259 73 268 -4 3 -6 -3 -6 -13 0 -10 -2 -16
-5 -13 -3 2 0 31 7 63 9 45 13 54 20 39 5 -12 6 -2 2 26 -3 30 -2 40 4 31 31
-44 37 476 8 654 -60 374 -183 662 -404 938 -429 541 -1107 831 -1784 766z
m505 -36 c-7 -2 -21 -2 -30 0 -10 3 -4 5 12 5 17 0 24 -2 18 -5z m50 -10 c-7
-2 -19 -2 -25 0 -7 3 -2 5 12 5 14 0 19 -2 13 -5z m206 -49 c96 -32 147 -53
128 -54 -4 0 -24 7 -45 16 -20 8 -91 31 -157 50 -66 19 -100 31 -75 28 25 -3
92 -21 149 -40z m191 -74 c8 -5 11 -10 5 -10 -5 0 -17 5 -25 10 -8 5 -10 10
-5 10 6 0 17 -5 25 -10z m105 -50 c3 -6 -1 -7 -9 -4 -18 7 -21 14 -7 14 6 0
13 -4 16 -10z m95 -56 c0 -2 -9 0 -20 6 -11 6 -20 13 -20 16 0 2 9 0 20 -6 11
-6 20 -13 20 -16z m133 -83 c7 -8 -7 -2 -30 14 -24 15 -43 30 -43 32 0 7 61
-31 73 -46z m77 -57 c0 -3 -13 4 -30 16 -16 12 -30 24 -30 26 0 3 14 -4 30
-16 17 -12 30 -24 30 -26z m35 -24 c10 -11 16 -20 13 -20 -3 0 -13 9 -23 20
-10 11 -16 20 -13 20 3 0 13 -9 23 -20z m70 -60 c21 -22 37 -40 34 -40 -3 0
-23 18 -44 40 -21 22 -37 40 -34 40 3 0 23 -18 44 -40z m91 -82 l29 -33 -32
29 c-18 17 -33 31 -33 33 0 8 8 1 36 -29z m185 -215 c13 -16 12 -17 -3 -4 -17
13 -22 21 -14 21 2 0 10 -8 17 -17z m30 -40 c13 -16 12 -17 -3 -4 -17 13 -22
21 -14 21 2 0 10 -8 17 -17z m156 -268 c52 -103 134 -311 132 -338 0 -7 -18
37 -39 98 -42 116 -107 258 -165 356 -19 33 -35 63 -35 67 1 13 51 -73 107
-183z m140 -377 c-3 -8 -6 -5 -6 6 -1 11 2 17 5 13 3 -3 4 -12 1 -19z m10 -40
c-3 -8 -6 -5 -6 6 -1 11 2 17 5 13 3 -3 4 -12 1 -19z m10 -40 c-3 -8 -6 -5 -6
6 -1 11 2 17 5 13 3 -3 4 -12 1 -19z m10 -50 c-3 -7 -5 -2 -5 12 0 14 2 19 5
13 2 -7 2 -19 0 -25z m37 -952 c-3 -15 -8 -25 -11 -23 -2 3 -1 17 3 31 3 15 8
25 11 23 2 -3 1 -17 -3 -31z m-189 -446 c-9 -16 -18 -30 -21 -30 -2 0 2 14 11
30 9 17 18 30 21 30 2 0 -2 -13 -11 -30z m-36 -62 c-23 -44 -108 -165 -170
-244 -109 -136 -308 -317 -449 -405 -65 -42 -95 -57 -60 -32 124 90 228 171
294 228 99 87 250 262 330 382 60 92 78 114 55 71z m-1162 -894 c-3 -3 -12 -4
-19 -1 -8 3 -5 6 6 6 11 1 17 -2 13 -5z"/>
<path d="M2000 3436 c-180 -50 -322 -197 -365 -377 -8 -35 -15 -85 -15 -111 0
-40 2 -45 19 -41 15 4 19 18 24 71 3 37 12 85 20 107 l14 40 94 0 94 0 3 -37
c3 -37 4 -38 43 -38 l39 0 0 -45 0 -45 -60 0 -60 0 0 -69 0 -69 -63 -55 -64
-56 -16 34 c-10 21 -14 46 -11 63 8 39 -17 59 -51 44 -25 -12 -34 -45 -15 -57
6 -4 25 -37 42 -73 59 -126 199 -240 339 -277 200 -54 435 40 550 218 62 96
86 191 81 324 -2 36 -5 40 -22 36 -11 -3 -20 -9 -20 -14 0 -5 -31 -9 -70 -9
l-70 0 0 55 0 54 -91 3 c-74 2 -94 6 -103 20 -9 14 -3 25 32 61 41 42 42 44
42 110 l0 66 37 -21 c85 -51 177 -166 192 -243 8 -38 53 -48 71 -15 10 18 7
25 -18 48 -16 15 -37 43 -47 62 -10 19 -48 65 -84 101 -105 105 -213 150 -360
148 -47 0 -106 -6 -131 -13z m255 -38 l45 -12 0 -65 c0 -63 -1 -67 -42 -108
-41 -42 -44 -43 -105 -43 l-63 0 0 40 0 40 -40 0 -40 0 0 74 c0 63 3 75 18 79
37 10 184 6 227 -5z m-285 -83 l0 -65 -40 0 -40 0 0 -40 0 -40 -85 0 -86 0 31
45 c17 24 51 62 75 82 41 35 120 82 138 83 4 0 7 -29 7 -65z m80 -170 l0 -65
-60 0 -60 0 0 65 0 65 60 0 60 0 0 -65z m188 -50 c18 -29 22 -49 22 -115 l0
-80 40 0 40 0 0 -52 c0 -47 -4 -56 -37 -90 -33 -34 -43 -38 -85 -38 l-48 0 0
60 0 60 -100 0 -100 0 0 -35 c0 -19 -3 -35 -7 -35 -4 0 -22 14 -40 32 -27 26
-33 39 -33 75 l0 43 60 0 60 0 0 65 0 65 40 0 40 0 0 40 0 40 63 0 c60 0 63
-1 85 -35z m182 -90 l0 -65 -60 0 -60 0 0 65 0 65 60 0 60 0 0 -65z m184 -92
c-12 -104 -48 -197 -97 -257 l-23 -29 -55 48 c-90 78 -84 70 -66 99 10 15 17
46 17 76 l0 50 40 0 c38 0 40 2 40 30 l0 30 75 0 75 0 -6 -47z m-474 -178 l0
-65 -60 0 -60 0 0 65 0 65 60 0 60 0 0 -65z m-160 -72 l0 -33 99 0 c96 0 100
1 103 23 3 19 10 22 57 25 40 2 58 8 71 24 l17 22 67 -59 c36 -32 66 -62 66
-66 0 -12 -58 -53 -115 -82 -180 -92 -435 -38 -559 116 l-31 39 65 58 65 59
48 -47 c37 -37 47 -53 47 -79z"/>
<path d="M4072 2360 c0 -14 2 -19 5 -12 2 6 2 18 0 25 -3 6 -5 1 -5 -13z"/>
<path d="M1611 2157 c-14 -18 -41 -83 -41 -99 1 -7 7 1 15 17 20 45 18 16 -5
-50 -11 -31 -17 -62 -13 -69 4 -8 3 -8 -6 0 -9 8 -9 18 -1 39 6 15 9 30 6 32
-8 8 -24 -31 -30 -72 -5 -29 -4 -35 3 -20 20 42 11 -15 -19 -125 -25 -88 -44
-194 -51 -285 0 -5 -4 -1 -9 10 -7 17 -9 15 -9 -13 -1 -50 39 -86 87 -78 21 3
44 15 54 28 23 31 13 36 -17 8 -24 -23 -25 -23 -45 -5 -11 10 -20 28 -20 41 0
13 -5 26 -12 30 -8 5 -9 2 -5 -9 3 -10 2 -17 -3 -17 -16 0 -11 32 8 47 9 8 11
12 5 8 -9 -4 -13 2 -13 17 0 18 2 20 10 8 9 -13 10 -13 10 0 3 66 81 359 124
466 17 45 30 86 28 93 -5 15 -37 14 -51 -2z m-104 -509 c-3 -8 -6 -5 -6 6 -1
11 2 17 5 13 3 -3 4 -12 1 -19z"/>
<path d="M3281 1951 c-19 -12 -6 -41 18 -41 28 0 34 15 13 33 -11 10 -23 13
-31 8z"/>
<path d="M983 1913 c-32 -6 -81 -70 -91 -118 -12 -59 -4 -89 35 -135 l35 -41
-20 -22 c-30 -33 -92 -127 -92 -141 0 -18 21 -36 42 -36 47 0 158 80 158 113
0 12 -9 36 -19 54 -18 29 -18 32 -3 46 39 33 144 98 139 86 -36 -88 -33 -135
10 -145 25 -7 89 18 105 41 11 15 10 -6 -3 -46 -21 -65 -31 -89 -38 -84 -4 2
-6 -14 -5 -36 1 -21 -2 -37 -7 -34 -4 3 -11 -11 -14 -32 -3 -21 -10 -46 -16
-55 -5 -10 -9 -25 -9 -33 0 -9 -3 -14 -7 -12 -5 3 -8 -20 -8 -50 0 -100 68
-135 139 -72 36 31 76 88 80 113 1 8 8 21 15 30 7 8 10 20 6 25 -3 6 -2 19 4
29 5 10 12 42 16 71 5 42 2 57 -11 72 -19 21 -73 25 -105 9 -23 -13 -24 -2 -5
37 8 15 21 46 29 68 8 22 28 71 43 108 29 73 26 91 -17 85 -16 -2 -24 -10 -25
-24 -2 -30 -57 -107 -104 -144 -23 -18 -43 -30 -46 -28 -6 6 17 69 51 141 30
63 57 86 80 67 8 -6 16 -7 19 -2 3 6 0 14 -7 20 -33 27 -86 14 -110 -28 -17
-28 -213 -170 -236 -170 -19 0 -61 62 -61 91 0 63 79 179 113 166 22 -8 22
-55 2 -104 -19 -45 -8 -62 30 -45 28 13 46 50 48 101 2 58 -49 82 -140 64z
m-30 -336 c-11 -12 -25 -31 -31 -42 -7 -12 -12 -15 -12 -6 0 18 50 84 58 77 3
-4 -4 -16 -15 -29z m42 -8 c6 -16 -1 -30 -29 -58 -33 -32 -36 -34 -36 -14 0
12 5 25 10 28 6 3 10 14 10 24 0 17 18 41 31 41 4 0 11 -10 14 -21z m389 -66
c4 -5 13 -8 19 -8 7 0 13 -11 14 -25 2 -23 2 -23 -7 -5 -8 16 -9 12 -5 -18 4
-24 0 -49 -11 -72 -9 -19 -14 -42 -10 -50 3 -9 2 -14 -3 -11 -12 8 -23 -22
-14 -37 3 -7 3 -9 -2 -5 -5 5 -23 -13 -40 -40 -69 -101 -105 -104 -105 -8 0
64 67 269 86 262 7 -3 18 2 24 10 13 15 42 19 54 7z"/>
<path d="M1730 1911 c-39 -11 -83 -81 -88 -143 -4 -49 -1 -58 30 -98 19 -25
37 -50 41 -57 5 -7 -5 -30 -23 -54 -34 -47 -41 -41 -10 9 37 60 11 33 -37 -39
-37 -56 -45 -74 -36 -87 22 -36 76 -22 156 40 41 32 48 67 22 102 -8 11 -15
26 -15 33 0 13 161 126 169 118 2 -3 -4 -22 -13 -43 -26 -57 -19 -129 15 -154
15 -11 42 -20 60 -21 40 -1 111 31 118 53 4 13 2 13 -12 1 -11 -8 -17 -9 -17
-2 0 6 12 17 28 25 15 8 43 30 62 49 l36 34 -1 -41 c-3 -77 -4 -83 -15 -66 -8
12 -10 9 -10 -12 0 -28 31 -55 50 -43 5 3 35 52 65 108 31 56 72 120 90 142
31 36 35 38 35 17 0 -14 -4 -21 -11 -16 -8 4 -9 -1 -4 -17 5 -19 4 -21 -4 -9
-6 9 -11 10 -11 3 0 -6 -3 -20 -6 -30 -5 -15 -4 -16 6 -3 9 12 10 8 4 -20 -4
-19 -6 -50 -6 -67 1 -18 -3 -33 -8 -33 -6 0 -10 -18 -10 -39 0 -30 6 -44 22
-55 39 -27 67 -20 119 33 68 67 61 81 -15 27 -34 -25 -66 -43 -70 -39 -12 13
-6 92 13 154 33 108 51 190 45 200 -3 5 -17 9 -31 9 -28 0 -37 -10 -125 -133
-61 -83 -66 -84 -44 -1 14 54 7 84 -19 84 -17 0 -50 -103 -40 -128 3 -9 3 -13
-1 -10 -8 9 -64 -31 -125 -90 -52 -49 -116 -77 -138 -59 -9 8 -11 24 -7 55 8
63 20 79 64 86 113 18 185 148 104 190 -43 22 -78 9 -125 -46 -36 -42 -242
-188 -266 -188 -16 0 -51 47 -57 78 -8 39 34 131 73 162 32 25 40 25 53 0 8
-14 5 -32 -10 -72 -21 -56 -16 -74 19 -63 27 8 47 40 55 86 9 54 -22 89 -77
88 -23 -1 -53 -4 -67 -8z m396 -76 c3 -14 10 -22 15 -19 5 3 6 -2 3 -11 -4 -9
-9 -13 -12 -10 -3 2 -10 -5 -16 -17 -12 -24 -103 -85 -112 -75 -13 13 86 157
107 157 5 0 11 -11 15 -25z m-381 -266 c5 -16 -2 -30 -26 -55 -41 -42 -46 -33
-20 29 22 51 36 59 46 26z"/>
<path d="M2660 1909 c-14 -5 -38 -28 -55 -51 -24 -34 -29 -53 -30 -98 0 -56
15 -85 95 -178 22 -27 18 -42 -24 -81 -35 -33 -40 -23 -17 30 11 24 16 46 11
47 -6 2 -7 9 -3 15 3 7 -3 3 -15 -7 -32 -28 -82 -110 -82 -134 0 -29 37 -38
82 -19 42 18 118 84 118 103 0 7 -10 29 -22 49 -12 21 -17 40 -12 43 79 55
164 112 168 112 3 0 -3 -23 -14 -50 -52 -131 12 -205 135 -159 58 22 83 50 37
41 -15 -3 -36 -11 -47 -18 -19 -12 -46 -18 -72 -15 -8 1 -13 17 -13 45 0 63
15 96 42 96 39 1 104 36 132 72 42 56 31 111 -26 131 -31 11 -75 -13 -116 -62
-24 -28 -84 -76 -146 -115 -89 -57 -108 -66 -125 -56 -64 33 -53 143 21 219
17 17 37 31 44 31 23 0 27 -46 8 -95 -20 -55 -11 -72 29 -54 47 22 63 113 25
149 -24 22 -83 26 -128 9z m398 -91 c3 -30 -3 -40 -34 -67 -40 -36 -81 -57
-90 -48 -3 3 11 32 31 64 66 104 88 116 93 51z m-444 -272 c-9 -15 -19 -25
-21 -22 -3 2 3 16 13 30 9 15 19 25 21 22 3 -2 -3 -16 -13 -30z m36 -70 c0 -2
-8 -10 -17 -17 -16 -13 -17 -12 -4 4 13 16 21 21 21 13z"/>
<path d="M1521 1894 c0 -11 3 -14 6 -6 3 7 2 16 -1 19 -3 4 -6 -2 -5 -13z"/>
<path d="M3231 1848 c-5 -13 -16 -41 -25 -63 -19 -45 -56 -203 -56 -238 0 -34
44 -53 76 -33 28 19 79 84 71 92 -3 3 -12 -3 -19 -15 -7 -12 -17 -21 -22 -21
-5 0 1 11 14 25 12 13 27 22 32 19 4 -3 11 3 15 13 3 10 28 41 55 70 46 49 59
73 39 73 -7 0 -124 -130 -179 -200 -11 -14 -23 -23 -25 -20 -9 8 20 130 47
203 30 78 32 102 10 111 -23 9 -24 8 -33 -16z"/>
<path d="M1501 1824 c0 -11 3 -14 6 -6 3 7 2 16 -1 19 -3 4 -6 -2 -5 -13z"/>
<path d="M1491 1784 c0 -11 3 -14 6 -6 3 7 2 16 -1 19 -3 4 -6 -2 -5 -13z"/>
<path d="M4092 1730 c0 -14 2 -19 5 -12 2 6 2 18 0 25 -3 6 -5 1 -5 -13z"/>
<path d="M1471 1704 c0 -11 3 -14 6 -6 3 7 2 16 -1 19 -3 4 -6 -2 -5 -13z"/>
<path d="M3125 1671 c-37 -23 -100 -89 -70 -73 22 11 113 91 105 92 -3 0 -18
-8 -35 -19z"/>
<path d="M1461 1664 c0 -11 3 -14 6 -6 3 7 2 16 -1 19 -3 4 -6 -2 -5 -13z"/>
<path d="M406 1163 c88 -153 203 -299 335 -428 l103 -100 -110 115 c-116 121
-230 266 -303 388 -24 39 -45 72 -48 72 -3 0 8 -21 23 -47z"/>
<path d="M1112 935 c1 -61 2 -64 7 -25 5 38 8 41 14 23 5 -13 12 -23 17 -23 5
0 12 10 17 23 6 18 9 15 14 -23 5 -39 6 -36 7 25 l0 70 -16 -37 c-10 -21 -19
-38 -22 -38 -3 0 -12 17 -22 38 l-16 37 0 -70z"/>
<path d="M1227 948 c-18 -59 -22 -99 -7 -60 5 12 16 22 25 22 9 0 20 -10 26
-22 15 -35 0 49 -15 87 l-13 30 -16 -57z m32 -15 c1 -7 -6 -13 -15 -13 -11 0
-14 5 -10 16 3 9 6 23 7 32 0 14 2 13 9 -3 5 -11 9 -26 9 -32z"/>
<path d="M1297 993 c-14 -14 -6 -43 16 -54 28 -15 37 -28 30 -46 -7 -18 -30
-16 -37 3 -4 9 -9 14 -13 11 -10 -10 18 -37 38 -37 10 0 21 10 25 22 5 16 -1
27 -24 47 -30 26 -33 51 -7 51 8 0 19 -8 25 -17 11 -17 11 -17 6 0 -3 10 -6
21 -6 23 0 7 -46 5 -53 -3z"/>
<path d="M1372 993 c13 -3 18 -18 21 -66 l3 -62 2 62 c2 49 5 62 20 66 9 3 -1
5 -23 5 -22 0 -32 -2 -23 -5z"/>
<path d="M1440 935 l0 -65 33 1 c30 2 30 2 5 6 -22 3 -28 10 -28 28 0 18 6 25
28 28 l27 4 -27 2 c-23 1 -28 6 -28 25 0 19 6 26 28 29 25 4 25 4 -5 6 l-33 1
0 -65z"/>
<path d="M1521 933 c1 -37 4 -56 6 -40 5 34 20 35 35 2 6 -14 15 -25 20 -25 5
0 2 13 -6 29 -10 19 -12 31 -5 38 6 6 9 21 7 34 -2 18 -10 25 -30 27 l-28 3 1
-68z m47 33 c4 -17 -12 -35 -30 -36 -5 0 -8 14 -8 31 0 24 4 30 17 27 10 -2
19 -12 21 -22z"/>
<path d="M1630 936 c0 -56 3 -66 18 -66 35 0 43 15 40 71 -3 51 -5 54 -30 57
l-28 3 0 -65z m45 -1 c0 -39 -4 -50 -17 -53 -15 -3 -18 5 -18 53 0 48 3 56 18
53 13 -3 17 -14 17 -53z"/>
<path d="M1737 993 c-11 -18 -34 -123 -26 -117 5 3 9 12 9 20 0 23 40 16 50
-8 10 -26 13 -14 4 18 -4 15 -11 20 -25 17 -22 -6 -26 16 -8 49 10 19 7 38 -4
21z"/>
<path d="M1782 993 c13 -3 18 -18 21 -66 l3 -62 2 62 c2 49 5 62 20 66 9 3 -1
5 -23 5 -22 0 -32 -2 -23 -5z"/>
<path d="M1850 948 c-7 -29 -15 -60 -17 -68 -2 -8 2 -5 8 8 15 28 46 29 54 1
4 -11 9 -19 11 -17 2 3 -3 24 -11 49 -8 24 -13 34 -11 22 3 -17 -1 -23 -14
-23 -13 0 -17 5 -13 20 3 11 9 23 14 26 11 7 12 34 1 34 -5 0 -14 -24 -22 -52z"/>
<path d="M1920 936 c0 -63 1 -66 24 -66 30 0 51 24 40 47 -4 10 -8 32 -8 48
-1 25 -6 31 -28 33 l-28 3 0 -65z m48 31 c2 -12 -3 -17 -17 -17 -15 0 -21 6
-21 21 0 25 33 22 38 -4z m-3 -43 c12 -12 13 -19 4 -30 -20 -24 -39 -16 -39
16 0 34 11 38 35 14z"/>
<path d="M2008 938 c-9 -35 -14 -65 -12 -68 3 -2 7 6 11 18 7 29 37 28 52 0 9
-19 10 -20 7 -3 -19 81 -29 115 -35 115 -3 0 -14 -28 -23 -62z m34 7 c4 -17 1
-25 -8 -25 -14 0 -19 31 -7 43 9 10 10 9 15 -18z"/>
<path d="M2087 994 c-15 -15 -6 -44 18 -60 14 -9 25 -22 25 -30 0 -23 -22 -28
-37 -8 -14 19 -15 19 -11 -1 2 -14 11 -20 28 -20 37 0 41 46 5 65 -14 8 -24
21 -23 29 5 23 35 25 42 4 4 -15 5 -15 3 2 -2 20 -36 33 -50 19z"/>
<path d="M2160 935 l0 -65 33 1 c30 2 30 2 5 6 -22 3 -28 10 -28 28 0 18 6 25
28 28 l27 4 -27 2 c-23 1 -28 6 -28 25 0 19 6 26 28 29 25 4 25 4 -5 6 l-33 1
0 -65z"/>
<path d="M2260 935 c0 -37 4 -65 10 -65 6 0 10 10 10 23 0 14 9 26 23 32 25
11 35 54 15 66 -7 5 -23 9 -35 9 -22 0 -23 -4 -23 -65z m55 45 c10 -16 -5 -50
-21 -50 -9 0 -14 11 -14 30 0 30 21 42 35 20z"/>
<path d="M2340 935 l0 -65 38 1 c36 1 36 2 7 8 -21 4 -31 13 -33 29 -3 19 1
22 30 23 l33 1 -30 7 c-21 4 -30 12 -30 26 0 14 9 22 30 26 29 6 29 7 -7 8
l-38 1 0 -65z"/>
<path d="M2421 933 c1 -38 4 -56 6 -40 5 34 26 35 42 1 6 -15 14 -24 17 -21 3
3 1 15 -6 26 -8 15 -8 27 0 41 15 28 -4 60 -35 60 -24 0 -25 -2 -24 -67z m53
42 c5 -15 -18 -45 -35 -45 -5 0 -9 14 -9 30 0 23 5 30 19 30 10 0 21 -7 25
-15z"/>
<path d="M2512 933 c0 -38 3 -54 5 -36 3 26 9 33 31 36 l27 4 -27 2 c-23 1
-28 6 -28 25 0 19 6 26 28 29 25 4 25 4 -5 6 l-33 1 2 -67z"/>
<path d="M2584 987 c-3 -8 -4 -36 -2 -63 3 -45 5 -49 28 -49 24 0 25 3 25 60
0 55 -2 60 -23 63 -12 2 -24 -3 -28 -11z m44 -49 c-2 -41 -7 -54 -20 -56 -15
-3 -18 5 -18 52 0 50 2 56 21 56 18 0 20 -5 17 -52z"/>
<path d="M2661 933 c1 -38 4 -56 6 -40 5 34 26 35 42 1 6 -15 14 -24 17 -21 3
3 1 14 -5 26 -8 14 -8 27 0 45 15 31 -2 56 -37 56 -23 0 -24 -3 -23 -67z m53
42 c6 -17 -21 -48 -35 -40 -5 4 -9 17 -9 31 0 27 34 35 44 9z"/>
<path d="M2752 935 c1 -61 2 -64 7 -25 5 38 8 41 14 23 5 -13 12 -23 17 -23 5
0 12 10 17 23 6 18 9 15 14 -23 5 -39 6 -36 7 25 l0 70 -16 -37 c-10 -21 -19
-38 -22 -38 -3 0 -12 17 -22 38 l-16 37 0 -70z"/>
<path d="M2866 947 c-17 -59 -21 -97 -6 -59 5 12 16 22 25 22 9 0 20 -10 25
-22 8 -21 9 -21 9 -3 0 23 -17 67 -18 48 -1 -7 -8 -13 -17 -13 -11 0 -14 5
-10 16 3 9 6 21 6 27 0 7 4 6 10 -3 9 -13 10 -13 10 0 0 8 -4 21 -9 29 -6 10
-14 -3 -25 -42z"/>
<path d="M2942 933 c1 -67 1 -67 7 -18 l6 50 18 -47 c10 -27 23 -48 28 -48 5
0 9 30 8 68 l-1 67 -12 -45 -12 -45 -13 37 c-20 62 -31 55 -29 -19z"/>
<path d="M3024 987 c-3 -8 -4 -36 -2 -63 3 -45 5 -49 28 -49 19 0 26 6 27 25
3 25 3 25 -7 3 -5 -13 -16 -23 -25 -23 -12 0 -15 12 -15 55 0 48 3 55 19 55
11 0 22 -8 25 -17 4 -14 4 -14 3 2 -3 24 -44 34 -53 12z"/>
<path d="M3100 935 l0 -65 33 1 c30 2 30 2 5 6 -22 3 -28 10 -28 28 0 18 6 25
28 28 l27 4 -27 2 c-23 1 -28 6 -28 25 0 19 6 26 28 29 25 4 25 4 -5 6 l-33 1
0 -65z"/>
<path d="M1751 954 c0 -11 3 -14 6 -6 3 7 2 16 -1 19 -3 4 -6 -2 -5 -13z"/>
<path d="M3349 783 l-34 -38 38 34 c20 19 37 36 37 38 0 8 -8 0 -41 -34z"/>
<path d="M860 626 c0 -2 8 -10 18 -17 15 -13 16 -12 3 4 -13 16 -21 21 -21 13z"/>
<path d="M2210 170 l-85 -6 75 -1 c41 -1 100 2 130 7 54 7 54 7 10 7 -25 -1
-83 -4 -130 -7z"/>
<path d="M2048 163 c6 -2 18 -2 25 0 6 3 1 5 -13 5 -14 0 -19 -2 -12 -5z"/>
</g>
</svg>
